<svg xmlns="http://www.w3.org/2000/svg" xmlns:xlink="http://www.w3.org/1999/xlink" version="1.1" x="0px" y="0px" width="500px" height="600px" viewBox="0 0 500 600" enable-background="new 0 0 500 600" xml:space="preserve"><style>.style0{fill:	#5AC9E7;}.style1{fill:	#FFFFFF;}</style><g><path d="M106.7 44.2V18.3H80.8L62.5 0L44.2 18.3H18.3v25.9L0 62.5l18.3 18.3v25.9h25.9L62.5 125l18.3-18.3h25.9V80.8L125 62.5 L106.7 44.2z M3 62.5l8.5-8.5c-1.3 2.3-2.3 5.2-2.3 8.5s1 6.2 2.3 8.5L3 62.5z M18.3 77.8L18.3 77.8L18.3 77.8L18.3 77.8z M18.3 77.4c-0.3-0.2-0.9-0.6-1.7-1.3L14.5 74c-2.2-2.6-4.6-6.4-4.6-11.5c0-5.1 2.4-9 4.6-11.5l2-2c0.8-0.7 1.4-1.2 1.7-1.3V77.4z M18.3 47.2L18.3 47.2L18.3 47.2L18.3 47.2z M82.9 20.4L82.9 20.4L82.9 20.4L82.9 20.4z M77.8 18.3L77.8 18.3L77.8 18.3L77.8 18.3z M62.5 3l8.5 8.5c-2.3-1.3-5.2-2.3-8.5-2.3s-6.2 1-8.5 2.3L62.5 3z M48.9 16.6l2.1-2.1c2.6-2.2 6.4-4.6 11.5-4.6 c5.1 0 9 2.4 11.5 4.6l2 2c0.7 0.8 1.2 1.4 1.3 1.7H47.6C47.8 18 48.2 17.4 48.9 16.6z M47.2 18.3L47.2 18.3L47.2 18.3L47.2 18.3z M45.1 20.4h17.4h17.4l12.3 12.3c-7.6-7.6-18.1-12.3-29.7-12.3c-11.6 0-22.1 4.7-29.7 12.3L45.1 20.4z M63.4 30.7l14.8-6.1 l6.1 14.8L63.4 30.7z M84.7 40.3l9.2 22.2l-9.2 22.2l-22.2 9.2l-22.2-9.2l-9.2-22.2l9.2-22.2l22.2-9.2L84.7 40.3z M62.5 30 c-2.5 0-4.6-2.1-4.6-4.6s2.1-4.6 4.6-4.6s4.6 2.1 4.6 4.6S65 30 62.5 30z M61.6 30.7l-20.9 8.7l6.1-14.8L61.6 30.7z M39.5 39.5 c-0.9 0.9-2 1.3-3.2 1.3c-1.2 0-2.4-0.5-3.2-1.3s-1.3-2-1.3-3.2c0-1.2 0.5-2.4 1.3-3.2c0.9-0.9 2-1.3 3.2-1.3 c1.2 0 2.4 0.5 3.2 1.3c0.9 0.9 1.3 2 1.3 3.2C40.8 37.5 40.4 38.6 39.5 39.5z M39.4 40.7l-8.7 20.9l-6.1-14.8L39.4 40.7z M25.4 57.9c2.6 0 4.6 2.1 4.6 4.6s-2.1 4.6-4.6 4.6c-2.6 0-4.6-2.1-4.6-4.6S22.8 57.9 25.4 57.9z M30.7 63.4l8.7 20.9l-14.8-6.1 L30.7 63.4z M33 85.5c0.9-0.9 2-1.3 3.2-1.3c1.2 0 2.4 0.5 3.2 1.3s1.3 2 1.3 3.2s-0.5 2.4-1.3 3.2c-0.9 0.9-2 1.3-3.2 1.3 c-1.2 0-2.4-0.5-3.2-1.3c-0.9-0.9-1.3-2-1.3-3.2S32.1 86.4 33 85.5z M40.7 85.6l20.9 8.7l-14.8 6.1L40.7 85.6z M62.5 95 c2.5 0 4.6 2.1 4.6 4.6s-2.1 4.6-4.6 4.6s-4.6-2.1-4.6-4.6S60 95 62.5 95z M63.4 94.3l20.9-8.7l-6.1 14.8L63.4 94.3z M85.5 85.5 c0.9-0.9 2-1.3 3.2-1.3c1.2 0 2.4 0.5 3.2 1.3c1.8 1.8 1.8 4.7 0 6.5c-0.9 0.9-2 1.3-3.2 1.3c-1.2 0-2.4-0.5-3.2-1.3 C83.7 90.2 83.7 87.3 85.5 85.5z M85.6 84.3l8.7-20.9l6.1 14.8L85.6 84.3z M99.6 67.1c-2.5 0-4.6-2.1-4.6-4.6s2.1-4.6 4.6-4.6 c2.5 0 4.6 2.1 4.6 4.6S102.1 67.1 99.6 67.1z M94.3 61.6l-8.7-20.9l14.8 6.1L94.3 61.6z M92 39.5c-0.9 0.9-2 1.3-3.2 1.3 c-1.2 0-2.4-0.5-3.2-1.3c-1.8-1.8-1.8-4.7 0-6.5c0.9-0.9 2-1.3 3.2-1.3c1.2 0 2.4 0.5 3.2 1.3c0.9 0.9 1.3 2 1.3 3.2 C93.3 37.5 92.9 38.6 92 39.5z M42.1 20.4L42.1 20.4L42.1 20.4L42.1 20.4z M20.4 20.4h12c-2.6 0.7-5.3 2-7.6 4.4s-3.7 5.1-4.4 7.6 V20.4z M20.4 36.7c0.2-3.4 1.3-7.8 4.9-11.4c3.6-3.6 8-4.7 11.4-4.9h2.9c1.1 0.1 1.8 0.2 2.2 0.3L20.7 41.8 c-0.1-0.3-0.2-1.1-0.3-2.2V36.7z M20.4 42.1L20.4 42.1L20.4 42.1L20.4 42.1z M20.4 62.5V45.1l12.3-12.3 C25.2 40.4 20.4 50.9 20.4 62.5c0 11.6 4.7 22.1 12.3 29.7L20.4 79.9V62.5z M20.4 82.9L20.4 82.9L20.4 82.9L20.4 82.9z M20.4 104.6 v-12c0.7 2.6 2 5.3 4.4 7.6s5.1 3.7 7.6 4.4H20.4z M39.6 104.6h-2.9c-3.4-0.2-7.8-1.3-11.4-4.9c-3.6-3.6-4.7-8-4.9-11.4v-2.9 c0.1-1.1 0.2-1.8 0.3-2.2l21.1 21.1C41.5 104.4 40.7 104.5 39.6 104.6z M42.1 104.6L42.1 104.6L42.1 104.6L42.1 104.6z M47.2 106.7 L47.2 106.7L47.2 106.7L47.2 106.7z M62.5 122l-8.5-8.5c2.3 1.3 5.2 2.3 8.5 2.3s6.2-1 8.5-2.3L62.5 122z M76.1 108.4l-2 2 c-2.6 2.2-6.4 4.6-11.5 4.6c-5.1 0-9-2.4-11.5-4.6l-2.1-2.1c-0.7-0.8-1.2-1.4-1.3-1.7h29.8C77.2 107 76.8 107.6 76.1 108.4z M77.8 106.7L77.8 106.7L77.8 106.7L77.8 106.7z M79.9 104.6H62.5H45.1L32.8 92.2c7.6 7.6 18.1 12.3 29.7 12.3 c11.6 0 22.1-4.7 29.7-12.3L79.9 104.6z M82.9 104.6L82.9 104.6L82.9 104.6L82.9 104.6z M104.6 104.6h-12c2.6-0.7 5.3-2 7.6-4.4 s3.7-5.1 4.4-7.6V104.6z M104.6 88.3c-0.2 3.4-1.3 7.8-4.9 11.4s-8 4.7-11.4 4.9h-2.9c-1.1-0.1-1.8-0.2-2.2-0.3l21.1-21.1 c0.1 0.3 0.2 1.1 0.3 2.2V88.3z M104.6 82.9L104.6 82.9L104.6 82.9L104.6 82.9z M104.6 62.5v17.4L92.2 92.2 C99.9 84.6 104.6 74.1 104.6 62.5c0-11.6-4.7-22.1-12.3-29.7l12.3 12.3V62.5z M104.6 42.1L104.6 42.1L104.6 42.1L104.6 42.1z M104.6 39.6c-0.1 1.1-0.2 1.8-0.3 2.2L83.2 20.7c0.3-0.1 1.1-0.2 2.2-0.3h2.9c3.4 0.2 7.8 1.3 11.4 4.9s4.7 8 4.9 11.4V39.6z M104.6 32.5c-0.7-2.6-2-5.3-4.4-7.6s-5.1-3.7-7.6-4.4h12V32.5z M106.7 47.2L106.7 47.2L106.7 47.2L106.7 47.2z M106.7 77.8 L106.7 77.8L106.7 77.8L106.7 77.8z M108.4 76.1c-0.8 0.7-1.4 1.2-1.7 1.3V47.6c0.3 0.2 0.9 0.6 1.7 1.3l2.1 2 c2.2 2.6 4.6 6.4 4.6 11.5c0 5.1-2.4 9-4.6 11.5L108.4 76.1z M115.8 62.5c0-3.3-1-6.2-2.3-8.5l8.5 8.5l-8.5 8.5 C114.8 68.7 115.8 65.8 115.8 62.5z"/></g><path d="M90.6 31.7c0.6 0.2 1.1 0.6 1.6 1.1C91.8 32.3 91.2 31.9 90.6 31.7z"/><path d="M81.1 80.7c4.6-4.7 7.4-11.1 7.4-18.2c0-7.1-2.8-13.5-7.4-18.2c0 0 0 0 0 0l0 0c-4.7-4.8-11.3-7.8-18.6-7.8 s-13.8 3-18.6 7.8l0 0c0 0 0 0 0 0c-4.6 4.7-7.4 11.1-7.4 18.2c0 7.1 2.8 13.5 7.4 18.2c0 0.1 0 0.1 0 0.2l0.1 0 c4.7 4.8 11.3 7.7 18.5 7.7s13.8-3 18.5-7.7l0.1 0C81.1 80.8 81.1 80.8 81.1 80.7z M44.3 70.1c1.5 1.2 3.4 2.6 5.6 3.9 c1.4 2.3 2.8 4.4 4.2 6.1c-5.6 0.6-9.1-0.2-9.6-0.3c0 0-0.1-0.1-0.1-0.1C44.1 78.1 43.8 74.8 44.3 70.1z M44.4 45.4L44.4 45.4 c0.1 0 3.6-1 9.7-0.4c-1.4 1.7-2.8 3.8-4.2 6.1c-2.2 1.3-4.1 2.6-5.6 3.9C43.8 50.3 44.1 46.9 44.4 45.4z M80.7 55 c-1.5-1.2-3.4-2.6-5.6-3.9c-1.3-2.3-2.8-4.4-4.2-6.1c6.1-0.6 9.6 0.4 9.7 0.4l0 0C80.9 46.9 81.2 50.3 80.7 55z M67.1 77 c-1.6 0.6-3.1 1.1-4.6 1.5c-1.5-0.4-3-0.9-4.6-1.5c-2.8-1-5.3-2.3-7.4-3.5c-1.1-1.9-2.1-4-3-6.3c-0.6-1.6-1.1-3.1-1.6-4.6 c0.4-1.5 0.9-3 1.6-4.6c0.9-2.3 1.9-4.4 3-6.3c2.2-1.3 4.6-2.5 7.4-3.5c1.6-0.6 3.1-1.1 4.6-1.5c1.5 0.4 3 0.9 4.6 1.5 c2.8 1 5.3 2.3 7.4 3.5c1.1 1.9 2.1 4 3 6.3c0.6 1.6 1.1 3.1 1.6 4.6c-0.4 1.5-0.9 3-1.6 4.6c-0.9 2.3-1.9 4.4-3 6.3 C72.4 74.7 69.9 76 67.1 77z M73.8 74.7c-1.2 2-2.5 3.8-3.8 5.3c-1.9-0.2-3.9-0.6-6.2-1.2c1.1-0.3 2.3-0.7 3.5-1.2 C69.7 76.8 71.9 75.8 73.8 74.7z M61.2 78.9c-2.3 0.6-4.3 0.9-6.2 1.2c-1.3-1.5-2.5-3.3-3.8-5.3c1.9 1.1 4.1 2.1 6.4 3 C58.9 78.1 60 78.5 61.2 78.9z M51.2 50.4c1.2-2 2.5-3.8 3.8-5.3c1.9 0.2 3.9 0.6 6.2 1.2c-1.1 0.3-2.3 0.7-3.5 1.2 C55.3 48.4 53.1 49.4 51.2 50.4z M63.8 46.3c2.3-0.6 4.3-0.9 6.2-1.2c1.3 1.5 2.5 3.3 3.8 5.3c-1.9-1.1-4.1-2.1-6.5-3 C66.1 47 65 46.6 63.8 46.3z M78.2 67.4c0.5-1.2 0.9-2.4 1.3-3.6c0.5 2 0.9 3.8 1.1 5.4c-1.3 1.1-2.9 2.3-4.8 3.5 C76.6 71.1 77.5 69.3 78.2 67.4z M79.9 62.5c0.6-2.2 1.1-4.3 1.4-6.2c0.4 0.3 0.8 0.7 1.1 1c2.8 2.5 4.3 4.6 4.7 5.2 c-0.4 0.6-1.9 2.7-4.7 5.2c-0.3 0.3-0.7 0.6-1.1 1C80.9 66.9 80.5 64.8 79.9 62.5z M79.5 61.3c-0.4-1.1-0.8-2.3-1.3-3.6 c-0.7-1.9-1.6-3.7-2.4-5.3c1.9 1.2 3.5 2.3 4.8 3.4C80.3 57.5 80 59.3 79.5 61.3z M74.5 44.1c-1.2 0-2.6 0.1-4.1 0.3 c-3.2-3.9-6.2-6.1-7.2-6.8c6.4 0.2 12.3 2.8 16.6 6.9C78.7 44.3 76.9 44.1 74.5 44.1z M69.5 44.5c-2 0.3-4.4 0.7-7 1.4 c-2.6-0.7-4.9-1.1-7-1.4c3.4-3.9 6.3-6 7-6.5C63.2 38.4 66.1 40.6 69.5 44.5z M54.7 44.4c-4.6-0.5-7.9-0.1-9.4 0.1 c4.3-4.2 10.2-6.8 16.6-6.9C60.8 38.3 57.9 40.5 54.7 44.4z M49.2 52.4c-0.9 1.6-1.7 3.4-2.4 5.3c-0.5 1.2-0.9 2.4-1.3 3.6 c-0.5-2-0.9-3.8-1.1-5.4C45.8 54.7 47.4 53.6 49.2 52.4z M45.1 62.5c-0.6 2.2-1.1 4.3-1.4 6.2c-0.4-0.3-0.8-0.7-1.1-1 c-2.8-2.6-4.3-4.7-4.7-5.2c0.4-0.6 1.9-2.7 4.7-5.2c0.3-0.3 0.7-0.6 1.1-1C44.1 58.3 44.5 60.3 45.1 62.5z M45.5 63.8 c0.4 1.1 0.8 2.3 1.3 3.6c0.7 1.9 1.6 3.7 2.5 5.3c-1.9-1.2-3.5-2.4-4.8-3.5C44.7 67.6 45 65.8 45.5 63.8z M50.2 81 c0.1 0 0.2 0 0.3 0c1.2 0 2.6-0.1 4.2-0.3c3.1 3.7 5.9 5.8 7 6.7c-6.3-0.2-12-2.7-16.3-6.8C46.4 80.8 48.1 81 50.2 81z M55.5 80.7 c2-0.3 4.4-0.7 7-1.4c2.5 0.7 4.9 1.1 7 1.4c-3.3 3.9-6.3 6-7 6.4C61.8 86.7 58.9 84.6 55.5 80.7z M70.3 80.8 c1.7 0.2 3.2 0.3 4.5 0.3c2.2 0 3.8-0.2 4.8-0.4c-4.3 4-10 6.6-16.3 6.8C64.4 86.6 67.2 84.4 70.3 80.8z M80.5 79.8 c-0.6 0.1-4 0.9-9.6 0.3c1.4-1.7 2.8-3.8 4.2-6.1c2.2-1.3 4.1-2.6 5.6-3.9c0.6 4.7 0.2 8-0.1 9.5C80.6 79.7 80.5 79.7 80.5 79.8z M81.3 69.6c0.5-0.4 1-0.9 1.5-1.3c2.5-2.3 4-4.2 4.6-5c-0.2 5.9-2.4 11.2-6 15.4C81.7 76.8 81.9 73.7 81.3 69.6z M87.4 62.5 L87.4 62.5C87.4 62.5 87.4 62.6 87.4 62.5L87.4 62.5z M87.4 61.9c-0.6-0.8-2.1-2.7-4.6-5c-0.4-0.4-0.9-0.8-1.5-1.3 c0.6-4.2 0.4-7.3 0.1-9.2C85.1 50.5 87.3 55.9 87.4 61.9z M62.6 37.6l-0.1 0.1l-0.1-0.1C62.4 37.6 62.5 37.6 62.6 37.6 C62.5 37.6 62.6 37.6 62.6 37.6z M43.7 55.6c-0.5 0.4-1 0.9-1.5 1.3c-2.5 2.3-4 4.2-4.6 5c0.2-5.9 2.4-11.3 6-15.5 C43.3 48.2 43.1 51.4 43.7 55.6z M37.6 62.5L37.6 62.5C37.6 62.6 37.6 62.5 37.6 62.5L37.6 62.5z M37.6 63.2c0.6 0.8 2.1 2.7 4.6 5 c0.4 0.4 0.9 0.8 1.5 1.3c-0.6 4.1-0.4 7.2-0.1 9.1C40 74.5 37.7 69.1 37.6 63.2z M62.5 87.4L62.5 87.4L62.5 87.4 C62.5 87.4 62.5 87.4 62.5 87.4C62.5 87.4 62.5 87.4 62.5 87.4z" class="style0"/><path d="M9.6 210.6H6.1v9.4H2.5v-9.4H0v-3.4h2.5c0 0 0-1.4 0-2.9c0-2.3 1.5-4.4 4.8-4.4c1.4 0 2.4 0.1 2.4 0.1 l-0.1 3.2c0 0-1 0-2.2 0c-1.2 0-1.4 0.6-1.4 1.5c0 0.1 0 0.2 0 0.2c0 0.3 0 0.9 0 2.3h3.7L9.6 210.6z" class="style1"/><path d="M14.2 419.3c-0.5 0.5-1.1 0.7-1.8 0.7h-5c-2.1 0-3.8-0.7-5.3-2.2c-1.5-1.5-2.2-3.2-2.2-5.3v-10 c0-0.7 0.2-1.3 0.7-1.8c0.5-0.5 1.1-0.7 1.8-0.7c0.7 0 1.3 0.2 1.8 0.7c0.5 0.5 0.7 1.1 0.7 1.8v3.6h7.1c0.6 0 1.2 0.2 1.6 0.7 c0.5 0.5 0.7 1 0.7 1.6c0 0.6-0.2 1.2-0.7 1.6c-0.5 0.5-1 0.7-1.6 0.7H5v1.8c0 0.7 0.2 1.3 0.7 1.8c0.5 0.5 1.1 0.7 1.8 0.7h5 c0.7 0 1.3 0.2 1.8 0.7c0.5 0.5 0.7 1.1 0.7 1.8C15 418.2 14.7 418.8 14.2 419.3z" class="style1"/></svg>